<svg width="328" height="116" viewBox="0 0 328 116" fill="none" xmlns="http://www.w3.org/2000/svg">
<path d="M61.5 0.239496L68.3355 -6.65252L54.6645 -20.4299L41 -6.65252L47.8355 0.239496L54.6645 -6.65252L61.5 0.239496Z" fill="#F2F2F2"/>
<path d="M170.836 0.239496L177.665 -6.65252L164 -20.4299L150.336 -6.65252L157.165 0.239496L164 -6.65252L170.836 0.239496Z" fill="#F2F2F2"/>
<path d="M259.664 -6.65252L266.5 0.239496L273.335 -6.65252L280.164 0.239496L287 -6.65252L273.335 -20.4299L259.664 -6.65252Z" fill="#F2F2F2"/>
<path d="M54.6645 7.13173L0 -47.9911V-34.2071L47.8355 14.0171L54.6645 7.13173Z" fill="#F2F2F2"/>
<path d="M41 20.9089L0 -20.4299V-6.65252L34.1645 27.8009L41 20.9089Z" fill="#F2F2F2"/>
<path d="M27.3355 34.6862L0 7.13135V20.9088L20.5 41.5782L27.3355 34.6862Z" fill="#F2F2F2"/>
<path d="M13.6645 48.4705L0 34.6865V48.4705L6.83552 55.3559L13.6645 48.4705Z" fill="#F2F2F2"/>
<path d="M157.164 14.0171L164 7.13173L109.335 -47.9911L54.6644 7.13173L61.4999 14.0171L109.335 -34.2071L157.164 14.0171Z" fill="#F2F2F2"/>
<path d="M143.5 27.8009L150.335 20.9089L109.335 -20.4299L68.3354 20.9089L75.1644 27.8009L109.335 -6.65252L143.5 27.8009Z" fill="#F2F2F2"/>
<path d="M129.836 41.5782L136.665 34.6862L109.336 7.13135L82.0001 34.6862L88.8356 41.5782L109.336 20.9088L129.836 41.5782Z" fill="#F2F2F2"/>
<path d="M116.165 55.3559L123 48.4705L109.336 34.6865L95.6646 48.4705L102.5 55.3559L109.336 48.4705L116.165 55.3559Z" fill="#F2F2F2"/>
<path d="M164 7.13173L170.835 14.0171L218.664 -34.2071L266.5 14.0171L273.335 7.13173L218.664 -47.9911L164 7.13173Z" fill="#F2F2F2"/>
<path d="M177.664 20.9089L184.5 27.8009L218.664 -6.65252L252.835 27.8009L259.664 20.9089L218.664 -20.4299L177.664 20.9089Z" fill="#F2F2F2"/>
<path d="M191.335 34.6862L198.164 41.5782L218.664 20.9088L239.164 41.5782L246 34.6862L218.664 7.13135L191.335 34.6862Z" fill="#F2F2F2"/>
<path d="M205 48.4705L211.835 55.3559L218.664 48.4705L225.5 55.3559L232.335 48.4705L218.664 34.6865L205 48.4705Z" fill="#F2F2F2"/>
<path d="M54.6645 20.9088L102.5 69.1396L109.336 62.2476L54.6645 7.13135L0 62.2476L6.83552 69.1396L54.6645 20.9088Z" fill="#F2F2F2"/>
<path d="M88.8355 82.9174L95.6644 76.0254L54.6644 34.6865L13.6644 76.0254L20.4999 82.9174L54.6644 48.4705L88.8355 82.9174Z" fill="#F2F2F2"/>
<path d="M75.1644 96.6946L81.9999 89.8092L54.6644 62.2478L27.3354 89.8092L34.1644 96.6946L54.6644 76.0252L75.1644 96.6946Z" fill="#F2F2F2"/>
<path d="M61.5 110.479L68.3355 103.587L54.6645 89.8093L41 103.587L47.8355 110.479L54.6645 103.587L61.5 110.479Z" fill="#F2F2F2"/>
<path d="M109.336 62.2476L116.165 69.1396L164 20.9088L211.836 69.1396L218.665 62.2476L164 7.13135L109.336 62.2476Z" fill="#F2F2F2"/>
<path d="M123 76.0254L129.836 82.9174L164 48.4705L198.165 82.9174L205 76.0254L164 34.6865L123 76.0254Z" fill="#F2F2F2"/>
<path d="M136.664 89.8092L143.5 96.6946L164 76.0252L184.5 96.6946L191.335 89.8092L164 62.2478L136.664 89.8092Z" fill="#F2F2F2"/>
<path d="M150.336 103.587L157.165 110.479L164 103.587L170.836 110.479L177.665 103.587L164 89.8093L150.336 103.587Z" fill="#F2F2F2"/>
<path d="M218.664 62.2476L225.5 69.1396L273.335 20.9088L321.164 69.1396L328 62.2476L273.335 7.13135L218.664 62.2476Z" fill="#F2F2F2"/>
<path d="M232.335 76.0254L239.164 82.9174L273.335 48.4705L307.5 82.9174L314.335 76.0254L273.335 34.6865L232.335 76.0254Z" fill="#F2F2F2"/>
<path d="M246 89.8092L252.836 96.6946L273.336 76.0252L293.836 96.6946L300.664 89.8092L273.336 62.2478L246 89.8092Z" fill="#F2F2F2"/>
<path d="M259.664 103.587L266.5 110.479L273.335 103.587L280.164 110.479L287 103.587L273.335 89.8093L259.664 103.587Z" fill="#F2F2F2"/>
<path d="M280.164 14.0171L328 -34.2071V-47.9911L273.335 7.13173L280.164 14.0171Z" fill="#F2F2F2"/>
<path d="M293.836 27.8009L328 -6.65252V-20.4299L287 20.9089L293.836 27.8009Z" fill="#F2F2F2"/>
<path d="M307.5 41.5782L328 20.9088V7.13135L300.664 34.6862L307.5 41.5782Z" fill="#F2F2F2"/>
<path d="M321.165 55.3559L328 48.4705V34.6865L314.336 48.4705L321.165 55.3559Z" fill="#F2F2F2"/>
<path d="M54.6645 117.364L0 62.2478V76.0252L47.8355 124.256L54.6645 117.364Z" fill="#F2F2F2"/>
<path d="M41 131.148L0 89.8093V103.587L34.1645 138.034L41 131.148Z" fill="#F2F2F2"/>
<path d="M157.164 124.256L164 117.364L109.335 62.2478L54.6644 117.364L61.4999 124.256L109.335 76.0252L157.164 124.256Z" fill="#F2F2F2"/>
<path d="M143.5 138.034L150.335 131.148L109.335 89.8093L68.3354 131.148L75.1644 138.034L109.335 103.587L143.5 138.034Z" fill="#F2F2F2"/>
<path d="M164 117.364L170.835 124.256L218.664 76.0252L266.5 124.256L273.335 117.364L218.664 62.2478L164 117.364Z" fill="#F2F2F2"/>
<path d="M177.664 131.148L184.5 138.034L218.664 103.587L252.835 138.034L259.664 131.148L218.664 89.8093L177.664 131.148Z" fill="#F2F2F2"/>
<path d="M280.164 124.256L328 76.0252V62.2478L273.335 117.364L280.164 124.256Z" fill="#F2F2F2"/>
<path d="M293.836 138.034L328 103.587V89.8093L287 131.148L293.836 138.034Z" fill="#F2F2F2"/>
</svg>
